<svg width="389.99999999999994" height="365" xmlns="http://www.w3.org/2000/svg">
 <g>
  <title>background</title>
  <rect x="-1" y="-1" width="392" height="367" id="canvas_background" fill="none"/>
 </g>

 <g>
  <title>Layer 1</title>
  <circle cx="193.957109" cy="182.808803" r="171.919998" fill="#FC5649" id="svg_1"/>
  <path d="m91.61911,99.3778l-13.159,-7.624c1.12,-1.935 2.321,-3.862 3.565,-5.724l12.648,8.445c-1.066,1.596 -2.093,3.245 -3.054,4.903zm11.715,-15.915l-11.19,-10.299c12.583,-13.671 28.651,-23.871 46.464,-29.499l4.581,14.502c-15.286,4.829 -29.067,13.576 -39.855,25.296z" fill="#FFFFFF" id="svg_2"/>
  <g id="svg_3">
   <path d="m120.96911,27.1168c-32.811,15.409 -59.945,40.879 -77.446,72.424c-1.692,-1.319 -3.33,-2.756 -4.894,-4.312c-3.165,-3.165 -5.385,-7.113 -6.85,-11.534c-8.25,-24.788 6.85,-64.365 6.85,-64.365s43.753,-16.691 68.058,-5.385c2.938,1.356 5.585,3.129 7.841,5.385c2.431,2.439 4.568,5.05 6.441,7.787z" fill="#FC5649" id="svg_4"/>
   <path d="m356.13711,83.6968c-1.465,4.42 -3.684,8.368 -6.85,11.534c-1.564,1.555 -3.202,2.993 -4.894,4.312c-17.501,-31.546 -44.635,-57.016 -77.446,-72.424c1.874,-2.738 4.012,-5.349 6.44,-7.786c2.256,-2.256 4.903,-4.03 7.841,-5.385c24.305,-11.307 68.059,5.385 68.059,5.385s15.099,39.576 6.85,64.364z" fill="#FC5649" id="svg_5"/>
   <path d="m98.70211,325.9388l-6.277,14.309c-0.373,0.846 -0.792,1.656 -1.246,2.437c-4.056,6.868 -11.471,11.171 -19.576,11.171l-24.06,0c-26.252,0 -43.863,-26.962 -33.32,-51.003l12.79,-29.154l9.524,-21.713c13.291,30.191 35.004,55.834 62.165,73.953z" fill="#FC5649" id="svg_6"/>
   <path d="m341.11811,353.8558l-24.06,0c-8.242,0 -15.764,-4.457 -19.775,-11.525c-0.382,-0.673 -0.728,-1.365 -1.046,-2.083l-6.44,-14.691c27.152,-18.266 48.792,-44.072 61.955,-74.426l9.561,21.804l13.125,29.918c10.543,24.041 -7.068,51.003 -33.32,51.003z" fill="#FC5649" id="svg_7"/>
  </g>
  <g id="svg_8">
   <path d="m98.70211,325.9388l-6.277,14.309c-0.373,0.846 -0.792,1.656 -1.246,2.437c-26.716,-17.238 -48.856,-40.988 -64.165,-68.986l9.524,-21.713c13.29,30.191 35.003,55.834 62.164,73.953z" fill="#C13A36" id="svg_9"/>
   <path d="m114.52911,19.3308c2.429,2.437 4.566,5.048 6.44,7.786c-32.811,15.409 -59.945,40.879 -77.446,72.424c-1.692,-1.319 -3.33,-2.756 -4.894,-4.312c-3.165,-3.165 -5.385,-7.113 -6.85,-11.534c18.111,-29.527 44.053,-53.75 74.908,-69.751c2.939,1.357 5.587,3.131 7.842,5.387z" fill="#C13A36" id="svg_10"/>
   <path d="m266.94711,27.1168c1.874,-2.738 4.012,-5.349 6.44,-7.786c2.256,-2.256 4.903,-4.03 7.841,-5.385c30.855,16 56.798,40.224 74.908,69.751c-1.465,4.42 -3.684,8.368 -6.85,11.534c-1.564,1.555 -3.202,2.993 -4.894,4.312c-17.5,-31.547 -44.634,-57.016 -77.445,-72.426z" fill="#C13A36" id="svg_11"/>
   <path d="m361.31211,272.9358c-15.209,28.135 -37.313,52.03 -64.028,69.396c-0.382,-0.673 -0.728,-1.365 -1.046,-2.083l-6.44,-14.691c27.152,-18.266 48.792,-44.072 61.955,-74.426l9.559,21.804z" fill="#C13A36" id="svg_12"/>
   <path d="m364.76711,163.2698c-6.522,57.64 -41.54,106.642 -90.629,132.575c19.318,-15.489 29.887,-35.742 29.887,-57.574c0,-23.534 -12.272,-45.236 -34.556,-61.111c-20.415,-14.542 -47.243,-22.55 -75.544,-22.55s-55.13,8.008 -75.544,22.55c-22.284,15.874 -34.557,37.577 -34.557,61.111c0,21.782 10.521,41.991 29.754,57.466c-48.983,-25.96 -83.914,-74.907 -90.426,-132.467c-0.726,6.414 -1.112,12.931 -1.112,19.539c0,94.949 76.971,171.919 171.92,171.919s171.919,-76.97 171.919,-171.918c-0.001,-6.609 -0.386,-13.126 -1.112,-19.54z" fill="#C13A36" id="svg_13"/>
  </g>
  <ellipse cx="193.927109" cy="238.266803" rx="91.907" ry="65.465" fill="#FC5649" id="svg_14"/>
  <g id="svg_15">
   <circle cx="158.675109" cy="239.533803" r="18.885" fill="#78909C" id="svg_16"/>
   <circle cx="229.179109" cy="239.533803" r="18.885" fill="#78909C" id="svg_17"/>
  </g>
  <path d="m263.32411,185.7848c-18.636,-13.274 -43.282,-20.585 -69.4,-20.585s-50.764,7.311 -69.4,20.585c-19.417,13.832 -30.112,32.472 -30.112,52.487s10.694,38.654 30.112,52.487c18.636,13.276 43.282,20.586 69.4,20.586c26.117,0 50.764,-7.311 69.4,-20.586c19.416,-13.832 30.111,-32.472 30.111,-52.487c-0.001,-20.015 -10.695,-38.656 -30.111,-52.487zm-69.4,110.351c-46.486,0 -84.304,-25.958 -84.304,-57.864s37.819,-57.864 84.304,-57.864s84.303,25.958 84.303,57.864s-37.819,57.864 -84.303,57.864z" id="svg_19"/>
  <path d="m158.67111,213.0418c-14.606,0 -26.489,11.883 -26.489,26.489c0,14.606 11.883,26.489 26.489,26.489s26.489,-11.883 26.489,-26.489c0,-14.606 -11.883,-26.489 -26.489,-26.489zm0,37.769c-6.221,0 -11.281,-5.061 -11.281,-11.281c0,-6.22 5.06,-11.281 11.281,-11.281s11.281,5.061 11.281,11.281c0,6.22 -5.06,11.281 -11.281,11.281z" id="svg_20"/>
  <path d="m229.17611,213.0418c-14.606,0 -26.489,11.883 -26.489,26.489c0,14.606 11.883,26.489 26.489,26.489c14.606,0 26.489,-11.883 26.489,-26.489c0,-14.606 -11.883,-26.489 -26.489,-26.489zm0,37.769c-6.221,0 -11.281,-5.061 -11.281,-11.281c0,-6.22 5.06,-11.281 11.281,-11.281s11.281,5.061 11.281,11.281c0,6.22 -5.06,11.281 -11.281,11.281z" id="svg_21"/>
  <rect x="129.374109" y="121.540803" width="13.645" height="15.208" id="svg_22"/>
  <rect x="243.079109" y="121.540803" width="13.645" height="15.208" id="svg_23"/>
  <path d="m381.40111,299.8018l-21.395,-48.78c8.677,-21.043 13.476,-44.076 13.476,-68.213c0,-29.313 -7.064,-57.006 -19.576,-81.471c0.253,-0.244 0.511,-0.487 0.755,-0.733c10.515,-10.514 13.877,-28.14 9.992,-52.388c-2.713,-16.935 -8.039,-31.007 -8.263,-31.597l-1.214,-3.18l-3.182,-1.214c-0.59,-0.225 -14.662,-5.551 -31.596,-8.263c-24.248,-3.883 -41.873,-0.522 -52.389,9.992c-1.207,1.206 -2.36,2.48 -3.471,3.798c-21.676,-9.305 -45.537,-14.468 -70.581,-14.468s-48.905,5.163 -70.581,14.467c-1.111,-1.317 -2.265,-2.591 -3.471,-3.798c-10.514,-10.514 -28.139,-13.876 -52.388,-9.991c-16.935,2.713 -31.007,8.038 -31.597,8.263l-3.182,1.214l-1.214,3.18c-0.225,0.591 -5.551,14.662 -8.262,31.598c-3.884,24.249 -0.523,41.873 9.991,52.387c0.245,0.245 0.504,0.489 0.756,0.733c-12.512,24.464 -19.576,52.158 -19.576,81.471c0,24.474 4.929,47.816 13.837,69.095l-21.007,47.898c-5.987,13.651 -4.695,29.251 3.458,41.729c8.152,12.479 21.92,19.928 36.825,19.928l24.055,0c12.045,0 22.953,-7.127 27.789,-18.157l2.756,-6.282c26.882,16.066 58.286,25.313 91.812,25.313c33.774,0 65.394,-9.38 92.405,-25.664l2.91,6.634c4.837,11.03 15.744,18.157 27.789,18.157l24.055,0c14.906,0 28.673,-7.45 36.825,-19.928c8.154,-12.479 9.446,-28.079 3.459,-41.73zm-102.541,-275.189c13.387,-13.18 48.435,-4.842 64.485,0.659c5.198,15.164 12.923,47.273 2.654,62.069c-5.634,-8.934 -12.08,-17.344 -19.188,-25.153c-0.017,-0.019 -0.034,-0.038 -0.051,-0.056c-2.735,-3.002 -5.568,-5.912 -8.497,-8.724c-0.229,-0.22 -0.455,-0.442 -0.685,-0.661c-0.851,-0.809 -1.71,-1.607 -2.577,-2.4c-0.327,-0.3 -0.659,-0.597 -0.989,-0.895c-2.935,-2.645 -5.954,-5.194 -9.055,-7.643c-0.104,-0.083 -0.208,-0.166 -0.313,-0.249c-1.096,-0.862 -2.203,-1.709 -3.318,-2.546c-0.019,-0.014 -0.039,-0.028 -0.058,-0.043c-7.109,-5.325 -14.592,-10.145 -22.408,-14.358zm-236.943,62.728c-10.268,-14.791 -2.544,-46.901 2.653,-62.065c15.49,-5.265 51.175,-13.765 64.486,-0.663c-7.806,4.209 -15.28,9.021 -22.381,14.339c-0.033,0.025 -0.068,0.051 -0.101,0.076c-1.105,0.829 -2.202,1.669 -3.289,2.522c-0.121,0.094 -0.239,0.192 -0.36,0.286c-3.083,2.436 -6.086,4.973 -9.007,7.604c-0.338,0.304 -0.675,0.608 -1.01,0.915c-0.862,0.788 -1.717,1.583 -2.563,2.387c-0.236,0.225 -0.469,0.453 -0.704,0.679c-2.925,2.809 -5.755,5.716 -8.486,8.714c-0.015,0.017 -0.031,0.033 -0.047,0.051c-7.109,7.808 -13.556,16.22 -19.191,25.155zm43.548,249.854c-2.413,5.502 -7.854,9.057 -13.863,9.057l-24.055,0c-9.898,0 -18.68,-4.753 -24.094,-13.039c-5.414,-8.286 -6.238,-18.237 -2.263,-27.303l15.777,-35.971c12.846,23.131 30.643,43.142 52.257,58.682l-3.759,8.574zm-55.822,-154.385c0,-90.605 73.712,-164.317 164.315,-164.317s164.316,73.712 164.316,164.317c0,90.604 -73.712,164.315 -164.316,164.315s-164.315,-73.712 -164.315,-164.315zm335.568,150.403c-5.414,8.286 -14.196,13.039 -24.094,13.039l-24.055,0c-6.008,0 -11.45,-3.555 -13.863,-9.057l-3.938,-8.978c21.599,-15.657 39.345,-35.787 52.105,-59.03l16.107,36.724c3.976,9.065 3.152,19.016 -2.262,27.302z" id="svg_26"/>
  <g id="svg_27"/>
  <g id="svg_28"/>
  <g id="svg_29"/>
  <g id="svg_30"/>
  <g id="svg_31"/>
  <g id="svg_32"/>
  <g id="svg_33"/>
  <g id="svg_34"/>
  <g id="svg_35"/>
  <g id="svg_36"/>
  <g id="svg_37"/>
  <g id="svg_38"/>
  <g id="svg_39"/>
  <g id="svg_40"/>
  <g id="svg_41"/>
  <g transform="rotate(3.269235610961914 136.19662475585992,131.1448059082031) " id="svg_25">
   <rect transform="rotate(36.7121696472168 136.19662475585935,131.14480590820312) " stroke="null" x="113.374131" y="123.540803" width="45.644991" height="15.208" id="svg_18"/>
   <rect transform="rotate(-48.168975830078125 136.19662475585946,131.14480590820315) " stroke="null" x="113.374131" y="123.540803" width="45.644991" height="15.208" id="svg_24"/>
  </g>
  <g transform="rotate(3.269235610961914 251.19662475585997,130.144805908203) " id="svg_44">
   <rect transform="rotate(36.7121696472168 251.1966247558593,130.14480590820318) " stroke="null" x="228.374131" y="122.540803" width="45.644991" height="15.208" id="svg_42"/>
   <rect transform="rotate(-48.168975830078125 251.19662475585935,130.1448059082031) " stroke="null" x="228.374131" y="122.540803" width="45.644991" height="15.208" id="svg_43"/>
  </g>
 </g>
</svg>