<?xml version="1.0" encoding="utf-8"?>
<!-- Generator: Adobe Illustrator 23.0.1, SVG Export Plug-In . SVG Version: 6.00 Build 0)  -->
<svg version="1.1" id="Livello_1" xmlns="http://www.w3.org/2000/svg" xmlns:xlink="http://www.w3.org/1999/xlink" x="0px" y="0px"
	 viewBox="0 0 638.1 500" enable-background="new 0 0 638.1 500" xml:space="preserve">
<g>
	<path d="M490.1,134.6c-24.4-29.3-64.9-39.4-99.1-26.4c8.6,6.3,15.1,14.6,18.9,24.2c9.6-2.1,19.7-1.6,30.4,2.1
		c21,7,34.5,21.6,38.9,43.4c4.9,24.2-7,47.7-29.1,59.7c-23.4,12.9-50.3,8.8-70-10.4c-34.8-34-69.3-68.3-104.9-101.7
		c-33.7-31.6-87.2-30.3-120.2,1.6c-31.9,30.8-34.8,80.7-6.7,114.4c29.3,35.3,82.5,42.8,119.3,15.3c14.8-10.9,28.1-25.9,40.2-37.3
		l-22.3-21.8c-9.8,11.2-18.1,20.7-28.6,30.8c-16.8,15.8-36.8,21-58.9,13.5c-20.7-7-34.7-21.5-38.9-43.4
		c-4.9-24.9,7.2-48.2,30.3-60.2c23.1-12,49.5-8,69.1,10.9c34.8,34,69.3,68.7,104.9,101.7c34,31.4,87,29.8,120.2-2
		C515.3,218.4,518.2,168.4,490.1,134.6L490.1,134.6z"/>
	<path fill="#FF286E" d="M458.2,47.7c4.2-2.1,7.5-5,8.8-9.1c4.7-12.4-7-31.9-28.3-36.4c-17.2-3.7-32.4-2.3-42.3,2.3
		C422.2,12.5,443.4,28.2,458.2,47.7L458.2,47.7z"/>
	<path d="M282.9,59.7l-14.6,27.2c0,0,16.3,28.6,58.4,43.4c42.1,15.1,22.8-21.6,22.8-21.6s-30.9-12-43-51.6
		C294.3,17.9,282.9,59.7,282.9,59.7L282.9,59.7z"/>
	<path fill="#FF286E" d="M288.3,22.5c-16.3,8.6-27,24.4-26.7,42.3c0,7.6,2.3,14.8,5.9,21.5l0.7,1.1c26.4-16.8,58.4-26.7,93.2-27.2
		c39.4-0.5,75.7,11.4,104.1,31.4C453.1,43.3,404.3,7.5,346.4,8.1c-18.9,0.2-36.4,4.4-52.4,11.4L288.3,22.5L288.3,22.5z"/>
	<path fill="#FF286E" d="M361,109.7c18.5,3.7,33.5,15.6,37.7,32.5c1.8,7.2,1.5,14.6-0.7,21.6l-0.7,1.1c-30.9-8.6-66.2-9.6-101.9-0.7
		c-40.5,9.9-74.7,30.4-99.1,56.8c1-48.6,42.3-94.9,101.7-109.5c19.4-4.7,38.4-5.5,56.3-3.3L361,109.7L361,109.7z"/>
	<path d="M615.2,473.5v-37.3l-3.4,2.8c-6.5,5.4-12,18.5-12,23.8c0,6.3,1.6,10.4,11.4,10.4h4.2v0.3H615.2z M578.4,381.6v-0.5
		c4.2-7.2,18.4-30.3,34.8-30.3c12.4,0,24.9,12.5,24.9,31.2v112.8c0,1.6-1.1,2.8-2.8,2.8H604c-21.2-0.5-27.5-12.9-27.5-30.9
		c0-29.8,38.9-61,39-61.3v-13.5c0-5.4-1-12-6.3-12c-4.2,0-9.1,5.4-14.8,13.7c-0.5,1-1.1,1.5-2.3,1.5c-1.1,0-11.4-8-12.9-9.9
		c-1-1-1.1-1.5-1.1-2.3C578.1,382,578.1,381.9,578.4,381.6 M551.2,497.7c-1.6,0-2.8-1.1-2.8-2.8V357.5c0-1.6,1.1-2.8,2.8-2.8H568
		c1.6,0,3.3,1.1,3.3,2.8V495c0,1.6-1.5,2.8-3.3,2.8H551.2L551.2,497.7z M548.3,333.9c0-1.1,0.5-1.6,1.1-2.3l16.9-9.6
		c1.1-0.5,1.5-0.5,1.6-0.5c1.6,0,2.8,1.1,3.3,2.6v20.2c0,1.6-1.5,2.8-3.3,2.8h-16.8c-1.6,0-2.8-1.1-2.8-2.8v-10.4L548.3,333.9
		L548.3,333.9z M538.1,494.6c0,1.6-1.5,2.8-3.3,2.8H518c-1.6,0-3.3-1.1-3.3-2.8V328.2c0.2-1,1-1.6,1.5-2.1l16.8-9.6
		c0.2-0.2,0.5-0.5,1-0.5c0.2,0,0.5-0.2,1-0.2c1.6,0,2.8,1.1,3.3,2.6v176.2H538.1z M481.9,473.5v-37.3l-3.4,2.8
		c-6.5,5.4-12,18.5-12,23.8c0,6.3,1.6,10.4,11.4,10.4h4.2v0.3H481.9z M445.2,381.6v-0.5c4.2-7.2,18.4-30.3,34.8-30.3
		c12.4,0,24.9,12.5,24.9,31.2v112.8c0,1.6-1.1,2.8-2.8,2.8h-31.4c-21.2-0.5-27.5-12.9-27.5-30.9c0-29.8,38.9-61,39-61.3v-13.5
		c0-5.4-1-12-6.3-12c-4.2,0-9.1,5.4-14.8,13.7c-0.5,1-1.1,1.5-2.3,1.5c-1.1,0-11.4-8-12.9-9.9c-1-1-1.1-1.5-1.1-2.3
		C445,382,445,381.9,445.2,381.6 M439.5,477.9v17.9c0,1.5-1,2.6-2.1,2.8c-2.1,0.5-3.9,0.5-5,0.5c-16.8,0-30.3-13.2-30.3-29.1V333.6
		c0-1,0.5-1.6,1.1-2.3c0.5-0.2,16.8-9.6,16.8-9.6c1.1-0.5,1.5-0.5,2.1-0.5c1.5,0,2.6,1.1,2.8,2.6v28.8h11.4c1.6,0,2.8,1.1,2.8,2.8
		v18.4c0,1.6-1.1,3.1-2.8,3.1h-11.4v91.6c0,3.4,3.4,6.3,7.5,6.3c1.5,0,2.6-0.2,4.2-0.5C438.3,475.1,439.5,476.1,439.5,477.9
		 M390.5,494.1c0,2.1-1.5,3.4-3.4,3.4h-17.7c-2.1,0-3.4-1.5-3.4-3.4V321.8c0-1.6,1.5-3.4,3.4-3.4h17.7c2.1,0,3.4,1.6,3.4,3.4V494.1
		L390.5,494.1z M344.3,318.4h14.8c2.1,0,3.3,2.1,2.3,3.9L347.2,356c-1,2.1-3.3,3.4-5,3.4h-11.6c-2.1,0-3.3-2.1-2.3-3.9l11.2-33.7
		C340,320.2,342.2,318.4,344.3,318.4 M301.3,382c0-3.3-3.4-5.9-7.5-5.9c-4.2,0-7.6,2.6-7.6,5.9v86.6c0,3.3,3.4,5.9,7.6,5.9h7.5V382
		L301.3,382z M324.3,494.6c0,1.6-1.1,2.8-2.8,2.8h-27.7c-17.2,0-30.4-12.4-30.4-28v-88.3c0-15.8,13.5-28.3,30.4-28.3
		c2.6,0,5,0.2,7.6,1v-25.4c0-1,0.5-1.6,1.5-2.1l17.4-9.9c0.5-0.2,1-0.2,1.1-0.2c1.5,0,2.8,1.1,2.8,2.6L324.3,494.6L324.3,494.6z
		 M210.4,381.6c0-3.3-3.4-6-7.6-6c-3.9,0-7.5,2.8-7.5,6v88.3c0,3.4,3.4,6.3,7.5,6.3c4.2,0,7.6-2.8,7.6-6.3V381.6L210.4,381.6z
		 M233.2,470.9c0,16.1-13.5,29.1-30.4,29.1c-16.8,0-30.4-13.2-30.4-29.1v-90.3c0-16.1,13.7-29.1,30.4-29.1
		c17.2,0,30.4,13.2,30.4,29.1V470.9L233.2,470.9z M167.6,356v20.2c0,1.5-1.1,2.6-2.6,2.6c-16.3,1.1-25.9,10.4-25.9,22.6v93.2
		c0,1.6-1.5,2.8-3.3,2.8h-16.9c-1.6,0-3.3-1.1-3.3-2.8V356c1-1.1,2.1-1.6,3.3-1.6c0.2,0,1,0,1.5,0.2c0.5,0.2,15.1,8.3,15.1,8.3
		c8.6-6.3,17.2-9.8,28.8-9.8C166.4,353.4,167.1,354.7,167.6,356 M84.9,497.7c-1.6,0-2.8-1.1-2.8-2.8V357.5c0-1.6,1.1-2.8,2.8-2.8
		h16.9c1.6,0,3.3,1.1,3.3,2.8V495c0,1.6-1.5,2.8-3.3,2.8H84.9L84.9,497.7z M82,333.9c0-1.1,0.5-1.6,1.1-2.3l16.8-9.6
		c1.1-0.5,1.5-0.5,1.6-0.5c1.6,0,2.8,1.1,3.3,2.6v20.2c0,1.6-1.5,2.8-3.3,2.8H84.6c-1.6,0-2.8-1.1-2.8-2.8v-10.4L82,333.9L82,333.9z
		 M25.2,354.7v111.5c0,4.2,4.7,8,10.3,8c6,0,10.4-3.7,10.4-8v-52.1h-7.2c-1.6,0-2.8-1.5-2.8-2.8v-11.6c0-1.5,1.1-2.8,2.8-2.8h28.8
		c1.6,0,2.8,1.5,2.8,3.3v63.9c0,19.7-15.3,35.3-35.1,35.3C15.6,499.5,0,483.7,0,464.2V360.9C0,348,2.1,337,7.5,329.3
		c2.1-3.4,5.9-6.5,9.1-8.3c12.9-7.2,33.2-2.3,52.4,11.4c1.1,1,1.5,1.5,1.5,2.6c0,0.2,0,1-0.2,1.1l-9.1,14.6c-0.5,1-1.5,1.5-2.6,1.5
		c-1,0-1.5-0.2-2.1-0.5c-9.9-8-19.5-11.6-25.1-8.6C26.8,345.3,25.2,348.4,25.2,354.7"/>
</g>
</svg>
